<svg width="425" height="425" viewBox="0 0 425 425" fill="none" xmlns="http://www.w3.org/2000/svg">
<path fill-rule="evenodd" clip-rule="evenodd" d="M62.9068 362.72C-19.8843 279.929 -19.8843 145.698 62.9068 62.9067C145.698 -19.8845 279.929 -19.8845 362.72 62.9067C445.511 145.698 445.511 279.929 362.72 362.72C279.929 445.511 145.698 445.511 62.9068 362.72ZM39 212.816L96.9478 270.764L111.441 256.27L67.9874 212.816L111.441 169.362L96.9478 154.868L39 212.816ZM328.685 154.868L314.191 169.362L357.645 212.816L314.191 256.27L328.685 270.764L386.632 212.816L328.685 154.868ZM182.65 306.444C190.928 308.148 199.084 309 207.119 309C221.24 309 234.387 308.026 246.56 306.078C258.977 304.131 268.96 299.992 276.507 293.662C284.298 287.331 288.193 277.714 288.193 264.811V176.432C288.193 168.641 287.098 161.702 284.907 155.616C282.959 149.286 280.037 143.808 276.142 139.182C272.49 134.312 267.986 130.417 262.629 127.495C257.273 124.33 251.186 122.017 244.369 120.556C237.552 118.852 230.126 118 222.092 118C210.162 118 197.867 119.339 185.207 122.017C172.546 124.452 162.442 128.104 154.895 132.973V159.268C162.686 153.181 171.938 148.799 182.65 146.12C193.606 143.199 203.954 141.738 213.692 141.738C229.031 141.738 240.839 145.025 249.117 151.598C257.395 158.172 261.534 168.519 261.534 182.641V204.218C257.855 202.179 253.837 200.343 249.482 198.709C243.882 196.275 237.43 194.449 230.126 193.231C222.822 192.014 214.179 191.405 204.197 191.405C191.05 191.405 179.363 193.475 169.138 197.614C159.156 201.509 151.243 208.083 145.4 217.335C139.8 226.343 137 238.395 137 253.489C137 264.445 139.069 273.576 143.208 280.88C147.591 287.94 153.191 293.54 160.008 297.679C167.068 301.818 174.616 304.739 182.65 306.444ZM261.534 225.423V266.272C261.534 274.549 257.395 279.906 249.117 282.34C241.082 284.532 229.153 285.627 213.327 285.627C205.293 285.627 197.38 284.532 189.589 282.34C182.042 280.149 175.711 276.375 170.599 271.019C165.729 265.663 163.295 258.481 163.295 249.472C163.295 238.273 167.433 229.751 175.711 223.908C183.989 218.065 195.797 215.143 211.136 215.143C223.796 215.143 235.361 216.726 245.83 219.891C251.88 221.541 257.115 223.385 261.534 225.423Z" fill="#27272A"/>
</svg>
