<svg width="121" height="121" viewBox="0 0 121 121" fill="none" xmlns="http://www.w3.org/2000/svg">
<path fill-rule="evenodd" clip-rule="evenodd" d="M3.11798 60.2893L60.2895 3.11773L117.461 60.2893L60.2895 117.461L3.11798 60.2893ZM0.289551 60.2893L1.70376 58.8751L58.8753 1.70352L60.2895 0.289307L61.7037 1.70352L118.875 58.8751L120.289 60.2893L118.875 61.7035L61.7037 118.875L60.2895 120.289L58.8753 118.875L1.70376 61.7035L0.289551 60.2893ZM53.9002 80.1082C55.6654 80.4717 57.4046 80.6534 59.1179 80.6534C62.1291 80.6534 64.9327 80.4457 67.5285 80.0304C70.1763 79.615 72.305 78.7324 73.9144 77.3826C75.5758 76.0327 76.4065 73.982 76.4065 71.2303V52.3843C76.4065 50.7229 76.1728 49.2433 75.7056 47.9453C75.2902 46.5955 74.6672 45.4273 73.8365 44.4409C73.0578 43.4025 72.0973 42.5719 70.9551 41.9489C69.8129 41.2739 68.515 40.7807 67.0613 40.4692C65.6076 40.1058 64.0241 39.9241 62.3108 39.9241C59.7669 39.9241 57.145 40.2096 54.4453 40.7807C51.7456 41.2999 49.591 42.0787 47.9816 43.117V48.7241C49.6429 47.4262 51.6158 46.4916 53.9002 45.9205C56.2365 45.2975 58.443 44.986 60.5197 44.986C63.7905 44.986 66.3085 45.6869 68.0737 47.0887C69.8389 48.4905 70.7215 50.697 70.7215 53.7082V58.3094C69.937 57.8746 69.0803 57.483 68.1516 57.1347C66.9575 56.6156 65.5816 56.2262 64.0241 55.9666C62.4666 55.707 60.6235 55.5772 58.4949 55.5772C55.6913 55.5772 53.1993 56.0185 51.0187 56.9011C48.8901 57.7318 47.2028 59.1336 45.9568 61.1064C44.7627 63.0274 44.1656 65.5973 44.1656 68.8162C44.1656 71.1525 44.6069 73.0994 45.4895 74.6569C46.424 76.1625 47.6181 77.3566 49.0718 78.2392C50.5774 79.1218 52.1869 79.7448 53.9002 80.1082ZM70.7215 62.8313V71.5419C70.7215 73.307 69.8389 74.4492 68.0737 74.9684C66.3604 75.4357 63.8164 75.6693 60.4418 75.6693C58.7285 75.6693 57.0412 75.4357 55.3798 74.9684C53.7704 74.5012 52.4205 73.6964 51.3302 72.5542C50.2919 71.4121 49.7727 69.8805 49.7727 67.9595C49.7727 65.5713 50.6553 63.7542 52.4205 62.5082C54.1857 61.2622 56.7037 60.6392 59.9745 60.6392C62.6743 60.6392 65.1403 60.9766 67.3728 61.6516C68.6629 62.0034 69.7791 62.3966 70.7215 62.8313Z" fill="white"/>
</svg>
